<?xml version="1.0" encoding="UTF-8" standalone="no"?>
<svg
   height="16"
   viewBox="0 0 16 16"
   width="16"
   version="1.1"
   id="svg184"
   sodipodi:docname="co_r_n_gen_w.svg"
   xml:space="preserve"
   inkscape:version="1.4 (86a8ad7, 2024-10-11)"
   xmlns:inkscape="http://www.inkscape.org/namespaces/inkscape"
   xmlns:sodipodi="http://sodipodi.sourceforge.net/DTD/sodipodi-0.dtd"
   xmlns="http://www.w3.org/2000/svg"
   xmlns:svg="http://www.w3.org/2000/svg"><defs
     id="defs188" /><sodipodi:namedview
     id="namedview186"
     pagecolor="#505050"
     bordercolor="#eeeeee"
     borderopacity="1"
     inkscape:showpageshadow="0"
     inkscape:pageopacity="0"
     inkscape:pagecheckerboard="0"
     inkscape:deskcolor="#505050"
     showgrid="false"
     inkscape:zoom="34.250485"
     inkscape:cx="8.2626567"
     inkscape:cy="10.116645"
     inkscape:window-width="1280"
     inkscape:window-height="961"
     inkscape:window-x="-8"
     inkscape:window-y="-8"
     inkscape:window-maximized="1"
     inkscape:current-layer="svg184" /><ellipse
     style="display:inline;fill:#ffffff;fill-opacity:1;fill-rule:evenodd"
     id="path1"
     ry="1.9999998"
     rx="2.0000012"
     cy="10.024638"
     cx="11.110743" /><ellipse
     style="display:inline;fill:#ffffff;fill-opacity:1;fill-rule:evenodd"
     id="path1-8"
     ry="1.9999998"
     rx="2.0000012"
     cy="6.7079735"
     cx="2.5839343" /><path
     d="M 3.5410156,9.1171875 A 3.2481725,3.1201775 0 0 0 0.29101563,12.236328 3.2481725,3.1201775 0 0 0 3.5410156,15.357422 3.2481725,3.1201775 0 0 0 6.7890625,12.236328 3.2481725,3.1201775 0 0 0 3.5410156,9.1171875 Z m -0.035156,1.1523435 a 2.0000012,1.9999998 0 0 1 2,2 2.0000012,1.9999998 0 0 1 -2,2 2.0000012,1.9999998 0 0 1 -2,-2 2.0000012,1.9999998 0 0 1 2,-2 z"
     style="display:inline;fill:#ffffff;fill-rule:evenodd;stroke-width:1.59177"
     id="path5" /><path
     d="m 5.9936397,2.5399143 a 2.0000012,1.9999998 0 0 0 -1.9999999,2 2.0000012,1.9999998 0 0 0 1.9999999,2 2.0000012,1.9999998 0 0 0 2,-2 2.0000012,1.9999998 0 0 0 -2,-2 z m -0.00781,1.0507812 A 0.93432283,0.93432218 0 0 1 6.919421,4.5262424 0.93432283,0.93432218 0 0 1 5.9858272,5.4598361 0.93432283,0.93432218 0 0 1 5.0502804,4.5262424 0.93432283,0.93432218 0 0 1 5.9858272,3.5906955 Z"
     style="display:inline;fill:#ffffff;fill-opacity:1;fill-rule:evenodd"
     id="path4" /><path
     d="m 9.387002,0.37955546 a 2.0000012,1.9999998 0 0 0 -2.0000076,2.00000044 2.0000012,1.9999998 0 0 0 2.0000076,2.000007 2.0000012,1.9999998 0 0 0 2,-2.000007 2.0000012,1.9999998 0 0 0 -2,-2.00000044 z M 9.379202,1.4303367 A 0.93432283,0.93432218 0 0 1 10.312784,2.3658839 0.93432283,0.93432218 0 0 1 9.37919,3.2994849 0.93432283,0.93432218 0 0 1 8.443636,2.3658839 0.93432283,0.93432218 0 0 1 9.37919,1.4303367 Z"
     style="display:inline;fill:#ffffff;fill-opacity:1;fill-rule:evenodd"
     id="path4-8" /><path
     d="m 8.963491,11.437955 a 2.0000012,1.9999998 0 0 0 -1.9999999,2 2.0000012,1.9999998 0 0 0 1.9999999,2 2.0000012,1.9999998 0 0 0 2.00001,-2 2.0000012,1.9999998 0 0 0 -2.00001,-2 z m -0.00781,1.050781 a 0.93432283,0.93432218 0 0 1 0.9335913,0.935547 0.93432283,0.93432218 0 0 1 -0.9335938,0.933594 0.93432283,0.93432218 0 0 1 -0.9355468,-0.933594 0.93432283,0.93432218 0 0 1 0.9355468,-0.935547 z"
     style="display:inline;fill:#ffffff;fill-opacity:1;fill-rule:evenodd"
     id="path4-2" /><ellipse
     style="display:inline;fill:#ffffff;fill-opacity:1;fill-rule:evenodd"
     id="path1-0"
     ry="1.9999998"
     rx="2.0000012"
     cy="6.6131287"
     cx="13.270219" /><ellipse
     style="display:inline;fill:#ffffff;fill-opacity:1;fill-rule:evenodd"
     id="path1-0-4"
     ry="1.9999998"
     rx="2.0000012"
     cy="2.5912457"
     cx="13.437953" /><path
     style="fill:#ffffff;fill-opacity:1"
     d="M 4.9884179,10.927138 C 5.4735439,9.7295918 5.4527233,9.7149085 1.7678261,9.633261 L 11.597222,3.3733666 12.360114,4.2759606 6.0660811,14.18175 C 6.2781643,10.557572 6.2796292,10.559777 4.9884179,10.927138 Z"
     id="path3"
     sodipodi:nodetypes="cccccc" /></svg>
